<svg xmlns="http://www.w3.org/2000/svg" viewBox="0 0 385.144 96.72"><path d="M0 0v1.488c3.1.372 8.68.62 8.68 3.968v84.94c0 3.348-5.58 3.6-8.68 3.968v1.488h29.884v-1.488c-2.976-.372-8.68-.62-8.68-3.968V61.132c0-22.2 43.028-6.82 43.028-39.68C64.232 7.936 51.832 0 29.016 0zm21.2 1.488h7.816c16.492 0 22.32 9.424 22.32 22.2 0 20.708-25.048 20.336-30.132 30.5zm44.466 84.32c1.37 7.688 8.312 10.664 16 10.664 15 .124 25.544-10.54 30.38-14.756 0 6.944-.992 15 6.944 15s15.5-8.556 15.5-8.556l-1.24-.868c-2.8 2.907-4.99 4.061-6.573 4.061-2.065 0-3.1-1.96-3.1-4.557 0-4.464-.124-18.1-.124-37.076 0-16.487-10.075-23.453-23.761-23.453a46.854 46.854 0 00-6.744.513c-16.986 2.36-23.434 11.66-20.086 16.248a3.2 3.2 0 002.754 1.468c3.452 0 8.509-4.248 15.226-4.816 6.944-.62 8.928 1.86 9.176 4.96.868 8.06-16.492 15-22.2 18.848-7.188 4.964-13.882 11.78-12.148 22.32zm24.432-23.932c9.8-7.44 12.152-13.02 11.532-17.732-.744-6.2-8.184-7.812-16.244-6.944-1.612.124-3.348-.248-2.48-1.612 2.232-3.72 7.688-6.82 14.136-6.944 7.564-.124 15 4.96 15 20.956v30.132c-4.853 4.659-14.431 10.531-21.541 10.531-5.153 0-10.261-2.1-12.064-6.687-2.728-7.068 1.86-14.26 11.656-21.7zm73.706 33.976v-1.24c-3.348-.372-8.06-.868-8.06-3.968V0H136.4v1.24c3.1.372 8.06.868 8.06 3.844v85.56c0 3.1-4.96 3.6-8.06 3.968v1.24zm6.981-35.092c0 16.988 14.26 35.836 32.488 35.836 16.74 0 27.9-11.656 33.356-24.8l-1.364-.5c-5.7 11.78-15.624 21.576-29.884 20.088-12.9-1.364-19.592-15.252-19.592-15.252.5-9.052 4.464-22.816 22.816-22.816l4.96.124c11.408 0 14.384-4.588 14.384-8.928 0-11.78-13.888-18.352-24.056-18.352-18.972.004-33.108 16.492-33.108 34.6zm30.132-32.984c10.419 0 16.619 10.044 16.619 19.468 0 3.6-4.216 3.6-7.192 3.6-18.823 0-24.676 12.326-25.742 22.122a53.346 53.346 0 01-2.282-15.8c-.003-11.534 3.593-29.39 18.597-29.39zm39.345 58.032c1.364 7.688 8.308 10.664 15.996 10.664 15 .124 25.544-10.54 30.38-14.756 0 6.944-.992 15 6.944 15s15.5-8.556 15.5-8.556l-1.24-.868c-2.8 2.907-4.99 4.061-6.573 4.061-2.065 0-3.1-1.96-3.1-4.557 0-4.464-.124-18.1-.124-37.076 0-16.487-10.075-23.453-23.761-23.453a46.854 46.854 0 00-6.744.513c-16.988 2.356-23.436 11.656-20.088 16.244a3.2 3.2 0 002.754 1.468c3.452 0 8.509-4.248 15.226-4.816 6.944-.62 8.928 1.86 9.176 4.96.868 8.06-16.492 15-22.2 18.848-7.186 4.968-13.882 11.784-12.146 22.324zm24.428-23.932c9.8-7.44 12.152-13.02 11.532-17.732-.744-6.2-8.184-7.812-16.244-6.944-1.612.124-3.348-.248-2.48-1.612 2.232-3.72 7.688-6.82 14.136-6.944 7.564-.124 15 4.96 15 20.956v30.132c-4.853 4.659-14.431 10.531-21.541 10.531-5.153 0-10.261-2.1-12.064-6.687-2.728-7.068 1.86-14.26 11.656-21.7zm47.546-32.984c3.1.372 8.06.62 8.06 3.72v58.156c0 3.1-4.96 3.6-8.06 3.844v1.24h27.4v-1.24c-2.6-.248-8.06-.744-8.06-3.844V69.44c.5-9.672 12.152-36.208 24.8-36.208 8.184 0 9.424 10.788 9.424 26.66v30.876c0 3.1-4.96 3.6-8.06 3.844v1.24h27.4v-1.24c-2.6-.248-8.06-.744-8.06-3.844V60.016c0-18.1.5-33.232-16.988-33.232-12.586 0-25.941 21.812-28.52 35.266V27.652h-19.336z" data-name="Path 1"/></svg>
